<mxfile host="Electron" modified="2024-04-15T05:02:25.816Z" agent="Mozilla/5.0 (Windows NT 10.0; Win64; x64) AppleWebKit/537.36 (KHTML, like Gecko) draw.io/24.1.0 Chrome/120.0.6099.109 Electron/28.1.0 Safari/537.36" etag="ei0D4Yh4VaVO9KTy_30m" version="24.1.0" type="device">
  <diagram name="Page-1" id="esV2hMCwbSQzknI_tFdY">
    <mxGraphModel dx="1886" dy="1754" grid="1" gridSize="10" guides="1" tooltips="1" connect="1" arrows="1" fold="1" page="1" pageScale="1" pageWidth="850" pageHeight="1100" math="0" shadow="0">
      <root>
        <mxCell id="0" />
        <mxCell id="1" parent="0" />
        <mxCell id="4sB0soczqx7J931dJpba-4" style="edgeStyle=orthogonalEdgeStyle;rounded=0;orthogonalLoop=1;jettySize=auto;html=1;exitX=0.5;exitY=1;exitDx=0;exitDy=0;exitPerimeter=0;entryX=0.5;entryY=0;entryDx=0;entryDy=0;" edge="1" parent="1" source="4sB0soczqx7J931dJpba-2" target="4sB0soczqx7J931dJpba-3">
          <mxGeometry relative="1" as="geometry" />
        </mxCell>
        <mxCell id="4sB0soczqx7J931dJpba-2" value="START" style="strokeWidth=2;html=1;shape=mxgraph.flowchart.start_1;whiteSpace=wrap;" vertex="1" parent="1">
          <mxGeometry x="-740" y="-70" width="100" height="60" as="geometry" />
        </mxCell>
        <mxCell id="4sB0soczqx7J931dJpba-6" style="edgeStyle=orthogonalEdgeStyle;rounded=0;orthogonalLoop=1;jettySize=auto;html=1;exitX=0.5;exitY=1;exitDx=0;exitDy=0;" edge="1" parent="1" source="4sB0soczqx7J931dJpba-3" target="4sB0soczqx7J931dJpba-5">
          <mxGeometry relative="1" as="geometry" />
        </mxCell>
        <mxCell id="4sB0soczqx7J931dJpba-3" value="INPUT a, b, c" style="shape=parallelogram;perimeter=parallelogramPerimeter;whiteSpace=wrap;html=1;fixedSize=1;" vertex="1" parent="1">
          <mxGeometry x="-750" y="50" width="120" height="60" as="geometry" />
        </mxCell>
        <mxCell id="4sB0soczqx7J931dJpba-27" style="edgeStyle=orthogonalEdgeStyle;rounded=0;orthogonalLoop=1;jettySize=auto;html=1;entryX=0.5;entryY=0;entryDx=0;entryDy=0;" edge="1" parent="1" source="4sB0soczqx7J931dJpba-5" target="4sB0soczqx7J931dJpba-26">
          <mxGeometry relative="1" as="geometry" />
        </mxCell>
        <mxCell id="4sB0soczqx7J931dJpba-5" value="IF a = 0" style="html=1;whiteSpace=wrap;aspect=fixed;shape=isoRectangle;" vertex="1" parent="1">
          <mxGeometry x="-765" y="170" width="150" height="90" as="geometry" />
        </mxCell>
        <mxCell id="4sB0soczqx7J931dJpba-24" style="edgeStyle=orthogonalEdgeStyle;rounded=0;orthogonalLoop=1;jettySize=auto;html=1;entryX=0.5;entryY=0;entryDx=0;entryDy=0;" edge="1" parent="1" source="4sB0soczqx7J931dJpba-7" target="4sB0soczqx7J931dJpba-23">
          <mxGeometry relative="1" as="geometry" />
        </mxCell>
        <mxCell id="4sB0soczqx7J931dJpba-7" value="IF b = 0" style="html=1;whiteSpace=wrap;aspect=fixed;shape=isoRectangle;" vertex="1" parent="1">
          <mxGeometry x="-540" y="170" width="150" height="90" as="geometry" />
        </mxCell>
        <mxCell id="4sB0soczqx7J931dJpba-16" style="edgeStyle=orthogonalEdgeStyle;rounded=0;orthogonalLoop=1;jettySize=auto;html=1;entryX=0.5;entryY=0;entryDx=0;entryDy=0;" edge="1" parent="1" source="4sB0soczqx7J931dJpba-8" target="4sB0soczqx7J931dJpba-15">
          <mxGeometry relative="1" as="geometry" />
        </mxCell>
        <mxCell id="4sB0soczqx7J931dJpba-18" style="edgeStyle=orthogonalEdgeStyle;rounded=0;orthogonalLoop=1;jettySize=auto;html=1;entryX=0;entryY=0.5;entryDx=0;entryDy=0;" edge="1" parent="1" source="4sB0soczqx7J931dJpba-8" target="4sB0soczqx7J931dJpba-17">
          <mxGeometry relative="1" as="geometry" />
        </mxCell>
        <mxCell id="4sB0soczqx7J931dJpba-8" value="IF c = 0" style="html=1;whiteSpace=wrap;aspect=fixed;shape=isoRectangle;" vertex="1" parent="1">
          <mxGeometry x="-310" y="170" width="150" height="90" as="geometry" />
        </mxCell>
        <mxCell id="4sB0soczqx7J931dJpba-13" style="edgeStyle=orthogonalEdgeStyle;rounded=0;orthogonalLoop=1;jettySize=auto;html=1;entryX=-0.008;entryY=0.509;entryDx=0;entryDy=0;entryPerimeter=0;" edge="1" parent="1" source="4sB0soczqx7J931dJpba-5" target="4sB0soczqx7J931dJpba-7">
          <mxGeometry relative="1" as="geometry" />
        </mxCell>
        <mxCell id="4sB0soczqx7J931dJpba-14" style="edgeStyle=orthogonalEdgeStyle;rounded=0;orthogonalLoop=1;jettySize=auto;html=1;entryX=0.027;entryY=0.5;entryDx=0;entryDy=0;entryPerimeter=0;" edge="1" parent="1" source="4sB0soczqx7J931dJpba-7" target="4sB0soczqx7J931dJpba-8">
          <mxGeometry relative="1" as="geometry" />
        </mxCell>
        <mxCell id="4sB0soczqx7J931dJpba-50" style="edgeStyle=orthogonalEdgeStyle;rounded=0;orthogonalLoop=1;jettySize=auto;html=1;entryX=1;entryY=0;entryDx=0;entryDy=0;" edge="1" parent="1" source="4sB0soczqx7J931dJpba-15" target="4sB0soczqx7J931dJpba-40">
          <mxGeometry relative="1" as="geometry">
            <mxPoint x="-20" y="370" as="targetPoint" />
          </mxGeometry>
        </mxCell>
        <mxCell id="4sB0soczqx7J931dJpba-15" value="Vô nghiệm" style="rounded=0;whiteSpace=wrap;html=1;" vertex="1" parent="1">
          <mxGeometry x="-295" y="340" width="120" height="60" as="geometry" />
        </mxCell>
        <mxCell id="4sB0soczqx7J931dJpba-45" style="edgeStyle=orthogonalEdgeStyle;rounded=0;orthogonalLoop=1;jettySize=auto;html=1;exitX=0.5;exitY=1;exitDx=0;exitDy=0;entryX=1;entryY=0.5;entryDx=0;entryDy=0;" edge="1" parent="1" source="4sB0soczqx7J931dJpba-17" target="4sB0soczqx7J931dJpba-40">
          <mxGeometry relative="1" as="geometry" />
        </mxCell>
        <mxCell id="4sB0soczqx7J931dJpba-17" value="Vô số nghiệm" style="rounded=0;whiteSpace=wrap;html=1;" vertex="1" parent="1">
          <mxGeometry x="-80" y="185" width="120" height="60" as="geometry" />
        </mxCell>
        <mxCell id="4sB0soczqx7J931dJpba-19" value="&lt;font style=&quot;font-size: 14px;&quot;&gt;False&lt;/font&gt;" style="text;strokeColor=none;fillColor=none;html=1;fontSize=24;fontStyle=1;verticalAlign=middle;align=center;" vertex="1" parent="1">
          <mxGeometry x="-260" y="280" width="100" height="40" as="geometry" />
        </mxCell>
        <mxCell id="4sB0soczqx7J931dJpba-20" value="&lt;font style=&quot;font-size: 14px;&quot;&gt;True&lt;/font&gt;" style="text;strokeColor=none;fillColor=none;html=1;fontSize=24;fontStyle=1;verticalAlign=middle;align=center;" vertex="1" parent="1">
          <mxGeometry x="-170" y="180" width="100" height="40" as="geometry" />
        </mxCell>
        <mxCell id="4sB0soczqx7J931dJpba-21" value="&lt;font style=&quot;font-size: 14px;&quot;&gt;True&lt;/font&gt;" style="text;strokeColor=none;fillColor=none;html=1;fontSize=24;fontStyle=1;verticalAlign=middle;align=center;" vertex="1" parent="1">
          <mxGeometry x="-400" y="180" width="100" height="40" as="geometry" />
        </mxCell>
        <mxCell id="4sB0soczqx7J931dJpba-22" value="&lt;font style=&quot;font-size: 14px;&quot;&gt;True&lt;/font&gt;" style="text;strokeColor=none;fillColor=none;html=1;fontSize=24;fontStyle=1;verticalAlign=middle;align=center;" vertex="1" parent="1">
          <mxGeometry x="-630" y="180" width="100" height="40" as="geometry" />
        </mxCell>
        <mxCell id="4sB0soczqx7J931dJpba-54" style="edgeStyle=orthogonalEdgeStyle;rounded=0;orthogonalLoop=1;jettySize=auto;html=1;exitX=0.5;exitY=1;exitDx=0;exitDy=0;entryX=0.5;entryY=0;entryDx=0;entryDy=0;" edge="1" parent="1" source="4sB0soczqx7J931dJpba-23" target="4sB0soczqx7J931dJpba-40">
          <mxGeometry relative="1" as="geometry" />
        </mxCell>
        <mxCell id="4sB0soczqx7J931dJpba-23" value="Nghiệm duy nhất&lt;div&gt;x = -c/b&lt;/div&gt;" style="rounded=0;whiteSpace=wrap;html=1;" vertex="1" parent="1">
          <mxGeometry x="-525" y="340" width="120" height="60" as="geometry" />
        </mxCell>
        <mxCell id="4sB0soczqx7J931dJpba-25" value="&lt;font style=&quot;font-size: 14px;&quot;&gt;False&lt;/font&gt;" style="text;strokeColor=none;fillColor=none;html=1;fontSize=24;fontStyle=1;verticalAlign=middle;align=center;" vertex="1" parent="1">
          <mxGeometry x="-490" y="280" width="100" height="40" as="geometry" />
        </mxCell>
        <mxCell id="4sB0soczqx7J931dJpba-30" style="edgeStyle=orthogonalEdgeStyle;rounded=0;orthogonalLoop=1;jettySize=auto;html=1;entryX=0.5;entryY=0;entryDx=0;entryDy=0;" edge="1" parent="1" source="4sB0soczqx7J931dJpba-26" target="4sB0soczqx7J931dJpba-29">
          <mxGeometry relative="1" as="geometry" />
        </mxCell>
        <mxCell id="4sB0soczqx7J931dJpba-26" value="d = b^2 - 4*a*c" style="rounded=0;whiteSpace=wrap;html=1;" vertex="1" parent="1">
          <mxGeometry x="-750" y="340" width="120" height="60" as="geometry" />
        </mxCell>
        <mxCell id="4sB0soczqx7J931dJpba-28" value="&lt;font style=&quot;font-size: 14px;&quot;&gt;False&lt;/font&gt;" style="text;strokeColor=none;fillColor=none;html=1;fontSize=24;fontStyle=1;verticalAlign=middle;align=center;" vertex="1" parent="1">
          <mxGeometry x="-720" y="280" width="100" height="40" as="geometry" />
        </mxCell>
        <mxCell id="4sB0soczqx7J931dJpba-34" style="edgeStyle=orthogonalEdgeStyle;rounded=0;orthogonalLoop=1;jettySize=auto;html=1;" edge="1" parent="1" source="4sB0soczqx7J931dJpba-29" target="4sB0soczqx7J931dJpba-31">
          <mxGeometry relative="1" as="geometry" />
        </mxCell>
        <mxCell id="4sB0soczqx7J931dJpba-29" value="Switch d" style="rounded=0;whiteSpace=wrap;html=1;" vertex="1" parent="1">
          <mxGeometry x="-750" y="490" width="120" height="60" as="geometry" />
        </mxCell>
        <mxCell id="4sB0soczqx7J931dJpba-47" style="edgeStyle=orthogonalEdgeStyle;rounded=0;orthogonalLoop=1;jettySize=auto;html=1;entryX=0;entryY=0.5;entryDx=0;entryDy=0;" edge="1" parent="1" source="4sB0soczqx7J931dJpba-31" target="4sB0soczqx7J931dJpba-37">
          <mxGeometry relative="1" as="geometry" />
        </mxCell>
        <mxCell id="4sB0soczqx7J931dJpba-31" value="d &amp;lt; 0" style="html=1;whiteSpace=wrap;aspect=fixed;shape=isoRectangle;" vertex="1" parent="1">
          <mxGeometry x="-765" y="610" width="150" height="90" as="geometry" />
        </mxCell>
        <mxCell id="4sB0soczqx7J931dJpba-48" style="edgeStyle=orthogonalEdgeStyle;rounded=0;orthogonalLoop=1;jettySize=auto;html=1;entryX=0;entryY=0.5;entryDx=0;entryDy=0;" edge="1" parent="1" source="4sB0soczqx7J931dJpba-32" target="4sB0soczqx7J931dJpba-38">
          <mxGeometry relative="1" as="geometry" />
        </mxCell>
        <mxCell id="4sB0soczqx7J931dJpba-32" value="d = 0" style="html=1;whiteSpace=wrap;aspect=fixed;shape=isoRectangle;" vertex="1" parent="1">
          <mxGeometry x="-765" y="760" width="150" height="90" as="geometry" />
        </mxCell>
        <mxCell id="4sB0soczqx7J931dJpba-49" style="edgeStyle=orthogonalEdgeStyle;rounded=0;orthogonalLoop=1;jettySize=auto;html=1;entryX=0;entryY=0.5;entryDx=0;entryDy=0;" edge="1" parent="1" source="4sB0soczqx7J931dJpba-33" target="4sB0soczqx7J931dJpba-39">
          <mxGeometry relative="1" as="geometry" />
        </mxCell>
        <mxCell id="4sB0soczqx7J931dJpba-33" value="d &amp;gt; 0" style="html=1;whiteSpace=wrap;aspect=fixed;shape=isoRectangle;" vertex="1" parent="1">
          <mxGeometry x="-765" y="910" width="150" height="90" as="geometry" />
        </mxCell>
        <mxCell id="4sB0soczqx7J931dJpba-35" style="edgeStyle=orthogonalEdgeStyle;rounded=0;orthogonalLoop=1;jettySize=auto;html=1;entryX=0.505;entryY=0.024;entryDx=0;entryDy=0;entryPerimeter=0;" edge="1" parent="1" source="4sB0soczqx7J931dJpba-31" target="4sB0soczqx7J931dJpba-32">
          <mxGeometry relative="1" as="geometry" />
        </mxCell>
        <mxCell id="4sB0soczqx7J931dJpba-36" style="edgeStyle=orthogonalEdgeStyle;rounded=0;orthogonalLoop=1;jettySize=auto;html=1;entryX=0.505;entryY=0.047;entryDx=0;entryDy=0;entryPerimeter=0;" edge="1" parent="1" source="4sB0soczqx7J931dJpba-32" target="4sB0soczqx7J931dJpba-33">
          <mxGeometry relative="1" as="geometry" />
        </mxCell>
        <mxCell id="4sB0soczqx7J931dJpba-41" style="edgeStyle=orthogonalEdgeStyle;rounded=0;orthogonalLoop=1;jettySize=auto;html=1;exitX=1;exitY=0.5;exitDx=0;exitDy=0;entryX=0;entryY=0;entryDx=0;entryDy=0;" edge="1" parent="1" source="4sB0soczqx7J931dJpba-37" target="4sB0soczqx7J931dJpba-40">
          <mxGeometry relative="1" as="geometry" />
        </mxCell>
        <mxCell id="4sB0soczqx7J931dJpba-37" value="Phương trình vô nghiệm" style="rounded=0;whiteSpace=wrap;html=1;" vertex="1" parent="1">
          <mxGeometry x="-525" y="625" width="120" height="60" as="geometry" />
        </mxCell>
        <mxCell id="4sB0soczqx7J931dJpba-42" style="edgeStyle=orthogonalEdgeStyle;rounded=0;orthogonalLoop=1;jettySize=auto;html=1;entryX=0;entryY=0.5;entryDx=0;entryDy=0;" edge="1" parent="1" source="4sB0soczqx7J931dJpba-38" target="4sB0soczqx7J931dJpba-40">
          <mxGeometry relative="1" as="geometry" />
        </mxCell>
        <mxCell id="4sB0soczqx7J931dJpba-38" value="Phương trình có nghiệm kép là&amp;nbsp;&lt;div&gt;-b/(2*a)&lt;/div&gt;" style="rounded=0;whiteSpace=wrap;html=1;" vertex="1" parent="1">
          <mxGeometry x="-525" y="775" width="120" height="60" as="geometry" />
        </mxCell>
        <mxCell id="4sB0soczqx7J931dJpba-43" style="edgeStyle=orthogonalEdgeStyle;rounded=0;orthogonalLoop=1;jettySize=auto;html=1;entryX=0;entryY=1;entryDx=0;entryDy=0;" edge="1" parent="1" source="4sB0soczqx7J931dJpba-39" target="4sB0soczqx7J931dJpba-40">
          <mxGeometry relative="1" as="geometry" />
        </mxCell>
        <mxCell id="4sB0soczqx7J931dJpba-39" value="Phương trình có 2 nghiệm phân biệt&lt;div&gt;(-b +&amp;nbsp;&lt;span style=&quot;font-family: &amp;quot;JetBrains Mono&amp;quot;, monospace; font-size: 9.8pt; background-color: rgb(30, 31, 34); color: rgb(188, 190, 196);&quot;&gt;√(d))/(2*a)&lt;/span&gt;&lt;/div&gt;&lt;div&gt;&lt;span style=&quot;font-family: &amp;quot;JetBrains Mono&amp;quot;, monospace; font-size: 9.8pt; background-color: rgb(30, 31, 34); color: rgb(188, 190, 196);&quot;&gt;(-b-&lt;/span&gt;&lt;span style=&quot;font-family: &amp;quot;JetBrains Mono&amp;quot;, monospace; font-size: 9.8pt; background-color: rgb(30, 31, 34); color: rgb(188, 190, 196);&quot;&gt;√(d))/(2*a)&lt;/span&gt;&lt;/div&gt;" style="rounded=0;whiteSpace=wrap;html=1;" vertex="1" parent="1">
          <mxGeometry x="-525" y="925" width="120" height="60" as="geometry" />
        </mxCell>
        <mxCell id="4sB0soczqx7J931dJpba-40" value="END" style="ellipse;whiteSpace=wrap;html=1;" vertex="1" parent="1">
          <mxGeometry x="-160" y="765" width="120" height="80" as="geometry" />
        </mxCell>
      </root>
    </mxGraphModel>
  </diagram>
</mxfile>
